{"title":"Behind.the.Candelabra.2013.HDRip.XViD.AC3.ReLeNTLesS","uid":8545105,"size":1187012993,"categoryP":"video","categoryS":"movies","magnet":"?xt=urn:btih:5fe14f6886d37ac6fc490911c849c10273d52262&amp;dn=Behind.the.Candelabra.2013.HDRip.XViD.AC3.ReLeNTLesS&amp;tr=udp%3A%2F%2Ftracker.openbittorrent.com%3A80&amp;tr=udp%3A%2F%2Fopen.demonii.com%3A1337&amp;tr=udp%3A%2F%2Ftracker.coppersurfer.tk%3A6969&amp;tr=udp%3A%2F%2Fexodus.desync.com%3A6969","seeders":1,"leechers":1,"uploader":"xxxlavalxxx","files":4,"time":1370505493,"description":"\n &lt;a href=&quot;\nhttp://www.imdb.com/title/tt1291580/&quot; rel=&quot;nofollow&quot; target=&quot;_NEW&quot;&gt;\nhttp://www.imdb.com/title/tt1291580/&lt;/a&gt;\n\n\nBased on the autobiographical novel, the tempestuous 6-year relationship between Liberace and his (much younger) lover, Scott Thorson, is recounted. \n\n\n\nDirector:\n Steven Soderbergh \n\nWriters:\n Richard LaGravenese (screenplay), Scott Thorson (book)\n\nStars:\n Matt Damon, Scott Bakula, Eric Zuckerman \n\nGenres:\n  Biography |  Drama |  Romance \n\nCountry:\n USA \n\nLanguage:\n English \n\n\n\nBehind the Candelabra 2013 HDRip XViD AC3 ReLeNTLesS\n\n\n\n iMDB: &lt;a href=&quot; http://www.imdb.com/title/tt1291580/&quot; rel=&quot;nofollow&quot; target=&quot;_NEW&quot;&gt; http://www.imdb.com/title/tt1291580/&lt;/a&gt;\n\nGENRAL iNF0\n Complete name                            : Behind.the.Candelabra.2013.HDRip.XViD.AC3.ReLeNTLesS.avi\n Format                                   : AVI\n Format/Info                              : Audio Video Interleave\n File size                                : 1.08 GiB\n Duration                                 : 1h 58mn\n Overall bit rate                         : 1 308 Kbps\nViDE0 iNF0\n ID                                       : 0\n Format                                   : MPEG-4 Visual\n Format profile                           : Advanced Simple@L5\n Format settings, BVOP                    : 2\n Format settings, QPel                    : No\n Format settings, GMC                     : No warppoints\n Format settings, Matrix                  : Default (H.263)\n Codec ID                                 : XVID\n Codec ID/Hint                            : XviD\n Duration                                 : 1h 58mn\n Bit rate                                 : 916 Kbps\n Width                                    : 720 pixels\n Height                                   : 400 pixels\n Display aspect ratio                     : 16:9\n Frame rate                               : 23.976 fps\n Color space                              : YUV\n Chroma subsampling                       : 4:2:0\n Bit depth                                : 8 bits\n Scan type                                : Progressive\n Compression mode                         : Lossy\n Bits/(Pixel*Frame)                       : 0.133\n Stream size                              : 776 MiB (70%)\n Writing library                          : XviD 1.2.1 (UTC 2008-12-04)\nAUDi0 iNF0\n ID                                       : 1\n Format                                   : AC-3\n Format/Info                              : Audio Coding 3\n Mode extension                           : CM (complete main)\n Format settings, Endianness              : Big\n Codec ID                                 : 2000\n Duration                                 : 1h 58mn\n Bit rate mode                            : Constant\n Bit rate                                 : 384 Kbps\n Channel(s)                               : 6 channels\n Channel positions                        : Front: L C R, Side: L R, LFE\n Sampling rate                            : 48.0 KHz\n Bit depth                                : 16 bits\n Compression mode                         : Lossy\n Stream size                              : 325 MiB (29%)\n Alignment                                : Aligned on interleaves\n Interleave, duration                     : 64 ms (1.53 video frames)\n Interleave, preload duration             : 192 ms\n Title                                    : Behind.the.Candelabra.english.audio\n Sample Included                             :  Yes\n\n\n\n\n\n    &lt;a href=&quot;\thttp://addpix.net/viewer.php?file=62212543445485603629.jpg&quot; rel=&quot;nofollow&quot; target=&quot;_NEW&quot;&gt;\thttp://addpix.net/viewer.php?file=62212543445485603629.jpg&lt;/a&gt;\n    &lt;a href=&quot;\thttp://addpix.net/viewer.php?file=74482181582167700364.jpg&quot; rel=&quot;nofollow&quot; target=&quot;_NEW&quot;&gt;\thttp://addpix.net/viewer.php?file=74482181582167700364.jpg&lt;/a&gt;\n    &lt;a href=&quot;\thttp://addpix.net/viewer.php?file=91783025028828157125.jpg&quot; rel=&quot;nofollow&quot; target=&quot;_NEW&quot;&gt;\thttp://addpix.net/viewer.php?file=91783025028828157125.jpg&lt;/a&gt;\n    &lt;a href=&quot;\thttp://addpix.net/viewer.php?file=53011048710677279355.jpg&quot; rel=&quot;nofollow&quot; target=&quot;_NEW&quot;&gt;\thttp://addpix.net/viewer.php?file=53011048710677279355.jpg&lt;/a&gt;\n    &lt;a href=&quot;\thttp://addpix.net/viewer.php?file=73260276744772983612.jpg&quot; rel=&quot;nofollow&quot; target=&quot;_NEW&quot;&gt;\thttp://addpix.net/viewer.php?file=73260276744772983612.jpg&lt;/a&gt;\n    &lt;a href=&quot;\thttp://addpix.net/viewer.php?file=66665869461271842586.jpg&quot; rel=&quot;nofollow&quot; target=&quot;_NEW&quot;&gt;\thttp://addpix.net/viewer.php?file=66665869461271842586.jpg&lt;/a&gt;","torrent":{"xt":"urn:btih:5fe14f6886d37ac6fc490911c849c10273d52262","amp;dn":"Behind.the.Candelabra.2013.HDRip.XViD.AC3.ReLeNTLesS","amp;tr":["udp%3A%2F%2Ftracker.openbittorrent.com%3A80","udp%3A%2F%2Fopen.demonii.com%3A1337","udp%3A%2F%2Ftracker.coppersurfer.tk%3A6969","udp%3A%2F%2Fexodus.desync.com%3A6969"],"infoHash":"5fe14f6886d37ac6fc490911c849c10273d52262","infoHashBuffer":{"type":"Buffer","data":[95,225,79,104,134,211,122,198,252,73,9,17,200,73,193,2,115,213,34,98]},"announce":[],"urlList":[]}}